# xmcd
#
# Track frame offsets: 
#        150
#        14291
#        25995
#        40485
#        52354
#        64544
#        75695
#        90097
#        98627
#        111398
#        126063
#        139525
#        152619
#
# Disc length: 2230 seconds
#
# Revision: 0
# Processed by: cddbd v1.5.2PL0 Copyright (c) Steve Scherf et al.
# Submitted via: ExactAudioCopyFreeDBPlugin 1.0
#
DISCID=a008b40d
DTITLE=The Damned and Dirty - Sell your soul
DYEAR=2012
DGENRE=Blues
TTITLE0=Out of sight
TTITLE1=Number 10
TTITLE2=12 Guage shotgun
TTITLE3=If I ain't got you
TTITLE4=Sell your soul
TTITLE5=turn on loose
TTITLE6=Send me home
TTITLE7=Looked you up in the phonebook
TTITLE8=sending you my letter
TTITLE9=High blood pressure
TTITLE10=Money in my pocket
TTITLE11=Gambler's folly
TTITLE12=Eviction notice Blues
EXTD=
EXTT0=
EXTT1=
EXTT2=
EXTT3=
EXTT4=
EXTT5=
EXTT6=
EXTT7=
EXTT8=
EXTT9=
EXTT10=
EXTT11=
EXTT12=
PLAYORDER=
